<svg width="23" height="23" viewBox="0 0 23 23" fill="none" xmlns="http://www.w3.org/2000/svg">
<g clip-path="url(#clip0_28_1202)">
<path d="M10.5417 3.83371H3.83341C3.32508 3.83371 2.83757 4.03565 2.47813 4.39509C2.11868 4.75454 1.91675 5.24205 1.91675 5.75038V19.167C1.91675 19.6754 2.11868 20.1629 2.47813 20.5223C2.83757 20.8818 3.32508 21.0837 3.83341 21.0837H17.2501C17.7584 21.0837 18.2459 20.8818 18.6054 20.5223C18.9648 20.1629 19.1667 19.6754 19.1667 19.167V12.4587M17.7292 2.39621C18.1105 2.01496 18.6276 1.80078 19.1667 1.80078C19.7059 1.80078 20.223 2.01496 20.6042 2.39621C20.9855 2.77746 21.1997 3.29455 21.1997 3.83371C21.1997 4.37288 20.9855 4.88996 20.6042 5.27121L11.5001 14.3754L7.66675 15.3337L8.62508 11.5004L17.7292 2.39621Z" stroke="#5390D9" stroke-width="2" stroke-linecap="round" stroke-linejoin="round"/>
</g>
<defs>
<clipPath id="clip0_28_1202">
<rect width="23" height="23" fill="white"/>
</clipPath>
</defs>
</svg>
