<svg width="22" height="22" viewBox="0 0 22 22" fill="none" xmlns="http://www.w3.org/2000/svg">
<path d="M6.41675 7.79199L9.1136 9.38647C10.6859 10.3161 11.3143 10.3161 12.8866 9.38647L15.5834 7.79199" stroke="black" stroke-width="1.5" stroke-linecap="round" stroke-linejoin="round"/>
<path d="M1.8477 12.3523C1.90763 15.1624 1.93759 16.5674 2.97446 17.6082C4.01133 18.6491 5.45439 18.6853 8.34051 18.7578C10.1193 18.8025 11.8806 18.8025 13.6593 18.7578C16.5455 18.6853 17.9885 18.6491 19.0254 17.6082C20.0622 16.5674 20.0922 15.1624 20.1521 12.3523C20.1714 11.4488 20.1714 10.5506 20.1521 9.64704C20.0922 6.83696 20.0622 5.43193 19.0254 4.39111C17.9885 3.3503 16.5455 3.31405 13.6593 3.24153C11.8806 3.19684 10.1193 3.19683 8.34051 3.24152C5.45439 3.31403 4.01133 3.35029 2.97446 4.3911C1.93759 5.43191 1.90763 6.83695 1.8477 9.64702C1.82843 10.5506 1.82844 11.4488 1.8477 12.3523Z" stroke="black" stroke-width="1.5" stroke-linejoin="round"/>
</svg>
