<svg width="25" height="24" viewBox="0 0 25 24" fill="none" xmlns="http://www.w3.org/2000/svg">
<path d="M10.3337 16.916H15.6667C15.7773 16.916 15.8835 16.9599 15.9617 17.0381C16.0398 17.1162 16.0837 17.2225 16.0837 17.333C16.0837 17.4435 16.0398 17.5498 15.9617 17.6279C15.8835 17.7061 15.7773 17.75 15.6667 17.75H10.3337C10.2233 17.75 10.1169 17.706 10.0388 17.6279C9.96068 17.5498 9.91675 17.4435 9.91675 17.333C9.91675 17.2225 9.96068 17.1162 10.0388 17.0381C10.1169 16.96 10.2233 16.916 10.3337 16.916ZM10.3337 14.25H15.6667C15.7773 14.25 15.8835 14.2939 15.9617 14.3721C16.0395 14.4501 16.0837 14.5558 16.0837 14.666C16.0837 14.7764 16.0397 14.8828 15.9617 14.9609C15.8835 15.0391 15.7773 15.083 15.6667 15.083H10.3337C10.2232 15.083 10.117 15.0391 10.0388 14.9609C9.96068 14.8828 9.91675 14.7765 9.91675 14.666C9.91683 14.5557 9.96086 14.4501 10.0388 14.3721C10.117 14.2939 10.2232 14.25 10.3337 14.25ZM10.3337 8.25H15.6667C15.7773 8.25 15.8835 8.29393 15.9617 8.37207C16.0395 8.4501 16.0837 8.55578 16.0837 8.66602C16.0837 8.77645 16.0397 8.88281 15.9617 8.96094C15.8835 9.03908 15.7773 9.08301 15.6667 9.08301H10.3337C10.2232 9.08301 10.117 9.03908 10.0388 8.96094C9.96068 8.8828 9.91675 8.77652 9.91675 8.66602C9.91683 8.5557 9.96086 8.45012 10.0388 8.37207C10.117 8.29393 10.2232 8.25 10.3337 8.25ZM10.3337 5.58301H15.6667C15.7773 5.58301 15.8835 5.62694 15.9617 5.70508C16.0397 5.7832 16.0837 5.88957 16.0837 6C16.0837 6.11024 16.0395 6.21591 15.9617 6.29395C15.8835 6.37209 15.7773 6.41602 15.6667 6.41602H10.3337C10.2232 6.41602 10.117 6.37209 10.0388 6.29395C9.96086 6.2159 9.91683 6.11031 9.91675 6C9.91675 5.88949 9.96068 5.78322 10.0388 5.70508C10.117 5.62694 10.2232 5.58301 10.3337 5.58301Z" fill="white" stroke="#9DB2CE" stroke-width="0.5"/>
<path d="M3.66699 13.583H7C7.11051 13.583 7.21678 13.6269 7.29492 13.7051C7.37296 13.7832 7.41699 13.8896 7.41699 14V17.333C7.41699 17.4435 7.37306 17.5498 7.29492 17.6279C7.21678 17.7061 7.11051 17.75 7 17.75H3.66699C3.55656 17.75 3.45019 17.706 3.37207 17.6279C3.29393 17.5498 3.25 17.4435 3.25 17.333V14C3.25 13.8895 3.29393 13.7832 3.37207 13.7051C3.45021 13.6269 3.55648 13.583 3.66699 13.583ZM4.08301 16.916H6.58301V14.416H4.08301V16.916Z" fill="white" stroke="#9DB2CE" stroke-width="0.5"/>
<path d="M7.66248 5.5918C7.77158 5.59285 7.87633 5.63671 7.95349 5.71387C8.03061 5.7911 8.07461 5.89574 8.07556 6.00488C8.0765 6.11405 8.03418 6.21929 7.95837 6.29785L5.00037 9.25586L3.37537 7.63086C3.29953 7.55229 3.25723 7.4471 3.25818 7.33789C3.2592 7.22875 3.30306 7.12406 3.38025 7.04688C3.45749 6.96972 3.56209 6.92575 3.67126 6.9248C3.78046 6.92387 3.88567 6.96616 3.96423 7.04199L5.00037 8.07812L7.37244 5.70605L7.37146 5.70508C7.4497 5.63106 7.55467 5.59086 7.66248 5.5918Z" fill="white" stroke="#9DB2CE" stroke-width="0.5"/>
<path d="M3.00037 0.25H16.3334C16.9743 0.25 17.5891 0.504795 18.0424 0.958008C18.4955 1.41121 18.7504 2.02613 18.7504 2.66699V21.333C18.7504 21.9739 18.4955 22.5888 18.0424 23.042C17.5891 23.4952 16.9743 23.75 16.3334 23.75H3.00037C2.35943 23.75 1.74459 23.4952 1.29138 23.042C0.838169 22.5888 0.583374 21.9739 0.583374 21.333V2.66699C0.583374 2.02605 0.838169 1.41122 1.29138 0.958008C1.74459 0.504795 2.35943 0.25 3.00037 0.25ZM3.00037 1.08301C2.58044 1.08301 2.17718 1.24994 1.88025 1.54688C1.58332 1.84381 1.41638 2.24707 1.41638 2.66699V21.333C1.41638 21.7529 1.58332 22.1562 1.88025 22.4531C2.17718 22.7501 2.58044 22.917 3.00037 22.917H16.3334C16.7531 22.917 17.1556 22.7499 17.4525 22.4531C17.7494 22.1562 17.9164 21.7529 17.9164 21.333V2.66699C17.9164 2.24707 17.7494 1.84381 17.4525 1.54688C17.1556 1.25015 16.7531 1.08301 16.3334 1.08301H3.00037ZM22.3334 4.91699C22.7975 4.91699 23.2425 5.1015 23.5707 5.42969C23.8988 5.75786 24.0834 6.20294 24.0834 6.66699V20.126L22.3334 22.751L20.5834 20.126V6.66699C20.5834 6.20294 20.768 5.75786 21.0961 5.42969C21.4243 5.1015 21.8692 4.91699 22.3334 4.91699ZM21.4164 19.874L21.4584 19.9365L22.1254 20.9365L22.3334 21.249L22.5414 20.9365L23.2084 19.9365L23.2504 19.874V9.08301H21.4164V19.874ZM22.3334 5.75C22.0903 5.75 21.8568 5.84665 21.6849 6.01855C21.5131 6.19045 21.4164 6.42395 21.4164 6.66699V8.25H23.2504V6.66699C23.2504 6.42395 23.1536 6.19045 22.9818 6.01855C22.8099 5.84664 22.5765 5.75 22.3334 5.75Z" fill="white" stroke="#9DB2CE" stroke-width="0.5"/>
</svg>
