<svg width="20" height="20" viewBox="0 0 20 20" fill="none" xmlns="http://www.w3.org/2000/svg">
<path d="M16.365 5.89901L11.805 2.70859C10.5621 1.83776 8.65419 1.88526 7.45877 2.81151L3.49252 5.90692C2.70086 6.52442 2.07544 7.79109 2.07544 8.78859V14.2511C2.07544 16.2698 3.71419 17.9165 5.73294 17.9165H14.2671C16.2859 17.9165 17.9246 16.2778 17.9246 14.259V8.89151C17.9246 7.82276 17.2359 6.50859 16.365 5.89901ZM10.5938 14.7498C10.5938 15.0744 10.3246 15.3436 10 15.3436C9.67544 15.3436 9.40627 15.0744 9.40627 14.7498V12.3748C9.40627 12.0503 9.67544 11.7811 10 11.7811C10.3246 11.7811 10.5938 12.0503 10.5938 12.3748V14.7498Z" fill="white"/>
</svg>
