<svg width="22" height="22" viewBox="0 0 22 22" fill="none" xmlns="http://www.w3.org/2000/svg">
<path d="M11.0002 17L11.0002 14" stroke="black" stroke-width="1.5" stroke-linecap="round"/>
<path d="M1.35154 12.2135C0.998524 9.91624 0.822014 8.76763 1.25632 7.74938C1.69062 6.73112 2.65418 6.03443 4.58129 4.64106L6.02114 3.6C8.41844 1.86667 9.61709 1 11.0002 1C12.3832 1 13.5819 1.86667 15.9792 3.6L17.419 4.64106C19.3461 6.03443 20.3097 6.73112 20.744 7.74938C21.1783 8.76763 21.0018 9.91624 20.6488 12.2135L20.3477 14.1724C19.8473 17.4289 19.5971 19.0572 18.4292 20.0286C17.2612 21 15.5538 21 12.139 21H9.86134C6.44649 21 4.73906 21 3.57115 20.0286C2.40324 19.0572 2.15302 17.4289 1.65258 14.1724L1.35154 12.2135Z" stroke="black" stroke-width="1.5" stroke-linejoin="round"/>
</svg>
