<svg width="24" height="24" viewBox="0 0 24 24" fill="none" xmlns="http://www.w3.org/2000/svg">
<path d="M1.74067 15.0003C1.51029 16.5105 2.54025 17.5587 3.80131 18.0811C8.63596 20.0839 15.3639 20.0839 20.1985 18.0811C21.4596 17.5587 22.4895 16.5105 22.2592 15.0003C22.1176 14.0721 21.4175 13.2993 20.8988 12.5447C20.2195 11.544 20.152 10.4526 20.1519 9.2915C20.1519 4.80419 16.5021 1.1665 11.9999 1.1665C7.49772 1.1665 3.84797 4.80419 3.84797 9.2915C3.84787 10.4526 3.78037 11.544 3.10099 12.5447C2.58233 13.2993 1.88225 14.0721 1.74067 15.0003Z" stroke="white" stroke-width="1.5" stroke-linecap="round" stroke-linejoin="round"/>
<path d="M7.66675 19.5835C8.16344 21.4525 9.91524 22.8335 12.0001 22.8335C14.0849 22.8335 15.8367 21.4525 16.3334 19.5835" stroke="white" stroke-width="1.5" stroke-linecap="round" stroke-linejoin="round"/>
</svg>
