<svg width="25" height="24" viewBox="0 0 25 24" fill="none" xmlns="http://www.w3.org/2000/svg">
<g clip-path="url(#clip0_233_301)">
<path d="M12.6666 15C14.3235 15 15.6666 13.6569 15.6666 12C15.6666 10.3431 14.3235 9 12.6666 9C11.0098 9 9.66663 10.3431 9.66663 12C9.66663 13.6569 11.0098 15 12.6666 15Z" stroke="#9DB2CE" stroke-width="2" stroke-linecap="round" stroke-linejoin="round"/>
<path d="M20.0666 15C19.9335 15.3016 19.8938 15.6362 19.9526 15.9606C20.0114 16.285 20.1661 16.5843 20.3966 16.82L20.4566 16.88C20.6426 17.0657 20.7901 17.2863 20.8907 17.5291C20.9914 17.7719 21.0432 18.0322 21.0432 18.295C21.0432 18.5578 20.9914 18.8181 20.8907 19.0609C20.7901 19.3037 20.6426 19.5242 20.4566 19.71C20.2709 19.8959 20.0503 20.0435 19.8075 20.1441C19.5647 20.2448 19.3045 20.2966 19.0416 20.2966C18.7788 20.2966 18.5185 20.2448 18.2757 20.1441C18.0329 20.0435 17.8124 19.8959 17.6266 19.71L17.5666 19.65C17.3309 19.4195 17.0316 19.2648 16.7072 19.206C16.3828 19.1472 16.0482 19.1869 15.7466 19.32C15.4509 19.4468 15.1986 19.6572 15.0209 19.9255C14.8433 20.1938 14.7479 20.5082 14.7466 20.83V21C14.7466 21.5304 14.5359 22.0391 14.1608 22.4142C13.7858 22.7893 13.2771 23 12.7466 23C12.2162 23 11.7075 22.7893 11.3324 22.4142C10.9573 22.0391 10.7466 21.5304 10.7466 21V20.91C10.7389 20.579 10.6317 20.258 10.4391 19.9887C10.2465 19.7194 9.97736 19.5143 9.66662 19.4C9.36501 19.2669 9.03043 19.2272 8.70604 19.286C8.38164 19.3448 8.0823 19.4995 7.84662 19.73L7.78662 19.79C7.60088 19.976 7.3803 20.1235 7.13751 20.2241C6.89471 20.3248 6.63446 20.3766 6.37163 20.3766C6.10879 20.3766 5.84854 20.3248 5.60574 20.2241C5.36295 20.1235 5.14237 19.976 4.95663 19.79C4.77067 19.6043 4.62315 19.3837 4.52251 19.1409C4.42186 18.8981 4.37005 18.6378 4.37005 18.375C4.37005 18.1122 4.42186 17.8519 4.52251 17.6091C4.62315 17.3663 4.77067 17.1457 4.95663 16.96L5.01663 16.9C5.24716 16.6643 5.40181 16.365 5.46063 16.0406C5.51945 15.7162 5.47974 15.3816 5.34663 15.08C5.21986 14.7842 5.00938 14.532 4.74109 14.3543C4.4728 14.1766 4.15841 14.0813 3.83663 14.08H3.66663C3.13619 14.08 2.62749 13.8693 2.25241 13.4942C1.87734 13.1191 1.66663 12.6104 1.66663 12.08C1.66663 11.5496 1.87734 11.0409 2.25241 10.6658C2.62749 10.2907 3.13619 10.08 3.66663 10.08H3.75663C4.08762 10.0723 4.40863 9.96512 4.67792 9.77251C4.94722 9.5799 5.15234 9.31073 5.26663 9C5.39974 8.69838 5.43945 8.36381 5.38063 8.03941C5.32181 7.71502 5.16716 7.41568 4.93663 7.18L4.87663 7.12C4.69067 6.93425 4.54315 6.71368 4.44251 6.47088C4.34186 6.22808 4.29005 5.96783 4.29005 5.705C4.29005 5.44217 4.34186 5.18191 4.44251 4.93912C4.54315 4.69632 4.69067 4.47575 4.87663 4.29C5.06237 4.10405 5.28295 3.95653 5.52574 3.85588C5.76854 3.75523 6.02879 3.70343 6.29163 3.70343C6.55446 3.70343 6.81471 3.75523 7.05751 3.85588C7.3003 3.95653 7.52088 4.10405 7.70663 4.29L7.76662 4.35C8.0023 4.58054 8.30164 4.73518 8.62604 4.794C8.95043 4.85282 9.28501 4.81311 9.58662 4.68H9.66662C9.96239 4.55324 10.2146 4.34275 10.3923 4.07446C10.57 3.80617 10.6653 3.49179 10.6666 3.17V3C10.6666 2.46957 10.8773 1.96086 11.2524 1.58579C11.6275 1.21071 12.1362 1 12.6666 1C13.1971 1 13.7058 1.21071 14.0808 1.58579C14.4559 1.96086 14.6666 2.46957 14.6666 3V3.09C14.6679 3.41179 14.7633 3.72618 14.9409 3.99447C15.1186 4.26276 15.3709 4.47324 15.6666 4.6C15.9682 4.73311 16.3028 4.77282 16.6272 4.714C16.9516 4.65518 17.2509 4.50054 17.4866 4.27L17.5466 4.21C17.7324 4.02405 17.9529 3.87653 18.1957 3.77588C18.4385 3.67523 18.6988 3.62343 18.9616 3.62343C19.2245 3.62343 19.4847 3.67523 19.7275 3.77588C19.9703 3.87653 20.1909 4.02405 20.3766 4.21C20.5626 4.39575 20.7101 4.61632 20.8107 4.85912C20.9114 5.10192 20.9632 5.36217 20.9632 5.625C20.9632 5.88783 20.9114 6.14808 20.8107 6.39088C20.7101 6.63368 20.5626 6.85425 20.3766 7.04L20.3166 7.1C20.0861 7.33568 19.9314 7.63501 19.8726 7.95941C19.8138 8.28381 19.8535 8.61838 19.9866 8.92V9C20.1134 9.29577 20.3239 9.54802 20.5922 9.72569C20.8604 9.90337 21.1748 9.99871 21.4966 10H21.6666C22.1971 10 22.7058 10.2107 23.0808 10.5858C23.4559 10.9609 23.6666 11.4696 23.6666 12C23.6666 12.5304 23.4559 13.0391 23.0808 13.4142C22.7058 13.7893 22.1971 14 21.6666 14H21.5766C21.2548 14.0013 20.9404 14.0966 20.6722 14.2743C20.4039 14.452 20.1934 14.7042 20.0666 15Z" stroke="#9DB2CE" stroke-width="2" stroke-linecap="round" stroke-linejoin="round"/>
</g>
<defs>
<clipPath id="clip0_233_301">
<rect width="24" height="24" fill="white" transform="translate(0.666626)"/>
</clipPath>
</defs>
</svg>
