<svg width="16" height="14" viewBox="0 0 16 14" fill="none" xmlns="http://www.w3.org/2000/svg">
<path d="M4.12002 14.0001C3.99638 14.0005 3.87422 13.9732 3.76245 13.9203C3.65069 13.8675 3.55215 13.7903 3.47404 13.6944C3.39593 13.5986 3.34021 13.4865 3.31097 13.3664C3.28173 13.2462 3.2797 13.1211 3.30502 13.0001L3.97002 9.11008L1.14502 6.36508C1.03433 6.25695 0.956075 6.12002 0.919084 5.96977C0.882093 5.81952 0.887842 5.66191 0.935682 5.51475C0.983522 5.36759 1.07155 5.23674 1.18982 5.13696C1.3081 5.03718 1.45191 4.97245 1.60502 4.95008L5.50002 4.38508L7.24502 0.845078C7.31232 0.703119 7.41852 0.583173 7.55128 0.499183C7.68405 0.415192 7.83792 0.370605 7.99502 0.370605C8.15212 0.370605 8.306 0.415192 8.43876 0.499183C8.57153 0.583173 8.67773 0.703119 8.74502 0.845078L10.5 4.38508L14.405 4.95508C14.5581 4.97745 14.702 5.04218 14.8202 5.14196C14.9385 5.24174 15.0265 5.37259 15.0744 5.51975C15.1222 5.66691 15.128 5.82452 15.091 5.97477C15.054 6.12502 14.9757 6.26195 14.865 6.37008L12.04 9.12508L12.695 13.0001C12.7211 13.1519 12.7044 13.3079 12.6469 13.4508C12.5893 13.5936 12.4932 13.7176 12.3692 13.809C12.2452 13.9003 12.0982 13.9553 11.9447 13.9679C11.7912 13.9804 11.6372 13.95 11.5 13.8801L8.00002 12.0451L4.50002 13.8801C4.38506 13.9505 4.25459 13.9917 4.12002 14.0001ZM2.09502 5.89008L4.73502 8.46508C4.83203 8.55866 4.90462 8.67459 4.94646 8.80272C4.9883 8.93085 4.9981 9.06728 4.97502 9.20008L4.35002 12.8301L7.61502 11.1151C7.73382 11.0529 7.86592 11.0204 8.00002 11.0204C8.13412 11.0204 8.26622 11.0529 8.38502 11.1151L11.65 12.8301L11.025 9.19508C11.0019 9.06228 11.0117 8.92585 11.0536 8.79772C11.0954 8.66959 11.168 8.55366 11.265 8.46008L13.905 5.88508L10.255 5.35508C10.1217 5.33564 9.9952 5.28406 9.88631 5.20479C9.77743 5.12552 9.68947 5.02094 9.63002 4.90008L8.00002 1.60008L6.37002 4.90508C6.31058 5.02594 6.22262 5.13052 6.11373 5.20979C6.00484 5.28906 5.8783 5.34064 5.74502 5.36008L2.09502 5.89008Z" fill="#FFA902"/>
<path d="M8.29504 1.06499L10.08 4.68499C10.1035 4.73244 10.1379 4.77356 10.1806 4.80489C10.2232 4.83621 10.2728 4.85683 10.325 4.86499L14.325 5.44499C14.3837 5.45603 14.4384 5.4828 14.483 5.52244C14.5277 5.56208 14.5608 5.6131 14.5788 5.67007C14.5968 5.72704 14.5989 5.78782 14.585 5.84593C14.5712 5.90403 14.5418 5.95728 14.5 5.99999L11.61 8.81499C11.572 8.85211 11.5435 8.89786 11.527 8.94835C11.5105 8.99884 11.5064 9.05258 11.515 9.10499L12.195 13.105C12.2081 13.1684 12.2021 13.2343 12.178 13.2944C12.1538 13.3545 12.1125 13.4061 12.0592 13.4429C12.0059 13.4797 11.9429 13.5 11.8782 13.5012C11.8134 13.5025 11.7497 13.4847 11.695 13.45L8.12504 11.57C8.07795 11.5455 8.02564 11.5326 7.97254 11.5326C7.91944 11.5326 7.86713 11.5455 7.82004 11.57L4.27504 13.435C4.22035 13.4697 4.15666 13.4875 4.0919 13.4862C4.02715 13.485 3.9642 13.4647 3.91089 13.4279C3.85759 13.3911 3.81628 13.3395 3.79212 13.2794C3.76797 13.2193 3.76203 13.1534 3.77504 13.09L4.45504 9.08999C4.46372 9.03758 4.45961 8.98384 4.44308 8.93335C4.42654 8.88286 4.39805 8.83712 4.36004 8.79999L1.50004 5.99999C1.45683 5.9571 1.42633 5.90308 1.41191 5.84393C1.39749 5.78477 1.39973 5.72278 1.41836 5.66481C1.43699 5.60684 1.4713 5.55516 1.51748 5.51548C1.56367 5.4758 1.61993 5.44968 1.68004 5.43999L5.68004 4.85999C5.73232 4.85183 5.78186 4.83121 5.8245 4.79989C5.86714 4.76856 5.90162 4.72744 5.92504 4.67999L7.71004 1.05999C7.73841 1.00679 7.78081 0.962372 7.83264 0.931568C7.88448 0.900764 7.94376 0.884751 8.00405 0.885266C8.06435 0.885781 8.12335 0.902806 8.17465 0.934491C8.22595 0.966176 8.26758 1.01131 8.29504 1.06499Z" fill="#FFA902"/>
</svg>
