<?xml version="1.0" encoding="UTF-8"?>
<svg version="1.1" xmlns="http://www.w3.org/2000/svg" width="1024" height="1024">
<path d="M0 0 C0.80051139 -0.00260775 1.60102278 -0.00521549 2.4257921 -0.00790226 C3.29950916 -0.00567154 4.17322623 -0.00344082 5.07341957 -0.0011425 C6.4725548 -0.00348249 6.4725548 -0.00348249 7.89995539 -0.00586975 C11.03336443 -0.00986622 14.16672523 -0.00669519 17.30013466 -0.00355339 C19.54399074 -0.00490812 21.7878466 -0.00668846 24.03170204 -0.00886345 C30.13552184 -0.01343184 36.23932479 -0.01164995 42.34314489 -0.00848436 C48.73478396 -0.0059546 55.12642156 -0.00830032 61.51806068 -0.00987053 C72.95225116 -0.01180847 84.38643231 -0.00869509 95.82062121 -0.00361119 C106.16438211 0.0008459 116.50813178 0.00008965 126.85189247 -0.00452995 C138.87552478 -0.00989733 150.8991486 -0.01186425 162.92278254 -0.00891769 C169.28249037 -0.007363 175.64219048 -0.00713869 182.00189781 -0.01045418 C187.99202424 -0.01335846 193.98212963 -0.01131046 199.9722538 -0.00555992 C202.16267932 -0.00424539 204.35310663 -0.00460405 206.54353142 -0.00682259 C237.63246003 -0.03538875 237.63246003 -0.03538875 245.95491982 4.12584114 C246.28491982 75.40584114 246.61491982 146.68584114 246.95491982 220.12584114 C294.01273074 220.37512448 294.01273074 220.37512448 341.07064247 220.60386848 C350.23885536 220.65831184 350.23885536 220.65831184 354.55120277 220.68629646 C357.518565 220.7049203 360.48589923 220.71840554 363.45330238 220.72853279 C412.73333313 220.90425445 412.73333313 220.90425445 415.95491982 224.12584114 C417.28378055 224.26970218 418.61940568 224.35260402 419.95491982 224.40709114 C420.75929482 224.44447395 421.56366982 224.48185677 422.39241982 224.52037239 C423.23804482 224.55517708 424.08366982 224.58998177 424.95491982 224.62584114 C426.62176953 224.69444624 428.28845756 224.76714338 429.95491982 224.84459114 C430.69741982 224.87488411 431.43991982 224.90517708 432.20491982 224.93638802 C433.95491982 225.12584114 433.95491982 225.12584114 434.95491982 226.12584114 C436.47311202 226.36471293 438.0003612 226.54646356 439.52913857 226.70396614 C440.49633827 226.8103138 441.46353798 226.91666145 442.46004677 227.02623177 C443.51022987 227.14160286 444.56041298 227.25697395 445.64241982 227.37584114 C461.39504594 229.21922099 476.73236626 232.6964425 491.95491982 237.12584114 C492.62394325 237.30888802 493.29296669 237.49193489 493.98226357 237.68052864 C496.48326629 238.36790783 498.89473039 239.10077899 501.29085732 240.09849739 C504.07684464 241.17285907 506.79331034 241.84611414 509.70491982 242.50084114 C514.26688748 243.61216091 518.31999555 245.0134361 522.54866982 247.02818489 C525.44885855 248.3511606 528.40557687 249.45025364 531.39241982 250.56334114 C536.3384253 252.43682807 541.00434844 254.57928329 545.69710732 257.00865364 C548.34199626 258.31737032 551.02786819 259.31644127 553.80257607 260.30943489 C565.62158648 264.79250781 565.62158648 264.79250781 568.95491982 268.12584114 C570.61846771 268.80025245 572.28558923 269.46587324 573.95491982 270.12584114 C575.62465864 271.12070295 577.29075417 272.12168453 578.95491982 273.12584114 C581.21985323 274.36584572 583.4909584 275.59462947 585.76741982 276.81334114 C586.92886513 277.43595833 588.09031044 278.05857552 589.28695107 278.70005989 C590.16738075 279.1705677 591.04781044 279.64107552 591.95491982 280.12584114 C591.95491982 280.78584114 591.95491982 281.44584114 591.95491982 282.12584114 C592.69741982 282.41459114 593.43991982 282.70334114 594.20491982 283.00084114 C596.52231778 283.94886758 598.73409096 284.97430025 600.95491982 286.12584114 C600.95491982 286.78584114 600.95491982 287.44584114 600.95491982 288.12584114 C602.93491982 288.78584114 604.91491982 289.44584114 606.95491982 290.12584114 C606.95491982 290.78584114 606.95491982 291.44584114 606.95491982 292.12584114 C607.67679482 292.39396614 608.39866982 292.66209114 609.14241982 292.93834114 C611.95258365 294.12485476 614.43908538 295.40069753 616.95491982 297.12584114 C616.95491982 297.78584114 616.95491982 298.44584114 616.95491982 299.12584114 C617.79023232 299.25539192 617.79023232 299.25539192 618.64241982 299.38755989 C621.6504164 300.34788313 623.51969127 301.93744452 625.95491982 303.93834114 C626.80054482 304.62541145 627.64616982 305.31248177 628.51741982 306.02037239 C630.95491982 308.12584114 630.95491982 308.12584114 633.09554482 310.28599739 C634.95801381 312.27850509 634.95801381 312.27850509 637.70491982 313.75084114 C638.44741982 314.20459114 639.18991982 314.65834114 639.95491982 315.12584114 C639.95491982 315.78584114 639.95491982 316.44584114 639.95491982 317.12584114 C641.27491982 317.45584114 642.59491982 317.78584114 643.95491982 318.12584114 C643.95491982 318.78584114 643.95491982 319.44584114 643.95491982 320.12584114 C644.79023232 320.49709114 644.79023232 320.49709114 645.64241982 320.87584114 C648.37902895 322.35508932 650.63142851 324.06051553 652.95491982 326.12584114 C652.95491982 326.78584114 652.95491982 327.44584114 652.95491982 328.12584114 C653.61491982 328.12584114 654.27491982 328.12584114 654.95491982 328.12584114 C654.95491982 328.78584114 654.95491982 329.44584114 654.95491982 330.12584114 C655.61491982 330.12584114 656.27491982 330.12584114 656.95491982 330.12584114 C656.95491982 330.78584114 656.95491982 331.44584114 656.95491982 332.12584114 C657.61491982 332.12584114 658.27491982 332.12584114 658.95491982 332.12584114 C658.95491982 332.78584114 658.95491982 333.44584114 658.95491982 334.12584114 C659.61491982 334.12584114 660.27491982 334.12584114 660.95491982 334.12584114 C660.95491982 334.78584114 660.95491982 335.44584114 660.95491982 336.12584114 C661.79023232 336.46615364 661.79023232 336.46615364 662.64241982 336.81334114 C665.58788481 338.48509154 667.59816166 340.70865329 669.95491982 343.12584114 C670.94491982 343.78584114 671.93491982 344.44584114 672.95491982 345.12584114 C672.95491982 345.78584114 672.95491982 346.44584114 672.95491982 347.12584114 C673.61491982 347.12584114 674.27491982 347.12584114 674.95491982 347.12584114 C674.95491982 347.78584114 674.95491982 348.44584114 674.95491982 349.12584114 C675.61491982 349.12584114 676.27491982 349.12584114 676.95491982 349.12584114 C677.07866982 350.05396614 677.07866982 350.05396614 677.20491982 351.00084114 C677.76750441 353.31021681 677.76750441 353.31021681 680.01741982 354.37584114 C680.97648232 354.74709114 680.97648232 354.74709114 681.95491982 355.12584114 C681.95491982 355.78584114 681.95491982 356.44584114 681.95491982 357.12584114 C682.88304482 357.49709114 682.88304482 357.49709114 683.82991982 357.87584114 C686.33310288 359.34830177 686.78537263 360.53612952 687.95491982 363.12584114 C688.61491982 363.45584114 689.27491982 363.78584114 689.95491982 364.12584114 C689.95491982 364.78584114 689.95491982 365.44584114 689.95491982 366.12584114 C690.61491982 366.12584114 691.27491982 366.12584114 691.95491982 366.12584114 C691.95491982 367.11584114 691.95491982 368.10584114 691.95491982 369.12584114 C692.61491982 369.12584114 693.27491982 369.12584114 693.95491982 369.12584114 C694.22304482 369.93021614 694.49116982 370.73459114 694.76741982 371.56334114 C695.15929482 372.40896614 695.55116982 373.25459114 695.95491982 374.12584114 C696.94491982 374.45584114 697.93491982 374.78584114 698.95491982 375.12584114 C702.95491982 380.382984 702.95491982 380.382984 702.95491982 384.12584114 C703.61491982 384.12584114 704.27491982 384.12584114 704.95491982 384.12584114 C708.95491982 388.47878232 708.95491982 388.47878232 708.95491982 392.12584114 C709.61491982 392.12584114 710.27491982 392.12584114 710.95491982 392.12584114 C714.95491982 397.41995879 714.95491982 397.41995879 714.95491982 401.12584114 C715.61491982 401.12584114 716.27491982 401.12584114 716.95491982 401.12584114 C718.4093489 403.18405162 719.72635519 405.2186777 721.01741982 407.37584114 C721.38157997 407.96236458 721.74574013 408.54888802 722.12093544 409.15318489 C723.90028108 412.08038936 725.40662862 414.71800049 725.95491982 418.12584114 C726.61491982 418.12584114 727.27491982 418.12584114 727.95491982 418.12584114 C727.95491982 419.44584114 727.95491982 420.76584114 727.95491982 422.12584114 C728.61491982 422.12584114 729.27491982 422.12584114 729.95491982 422.12584114 C730.61491982 424.10584114 731.27491982 426.08584114 731.95491982 428.12584114 C732.61491982 428.12584114 733.27491982 428.12584114 733.95491982 428.12584114 C733.95491982 429.44584114 733.95491982 430.76584114 733.95491982 432.12584114 C734.61491982 432.12584114 735.27491982 432.12584114 735.95491982 432.12584114 C736.28105263 432.78970833 736.60718544 433.45357552 736.94320107 434.13755989 C737.59868935 435.46207161 737.59868935 435.46207161 738.26741982 436.81334114 C738.69667763 437.68345833 739.12593544 438.55357552 739.56820107 439.45005989 C740.908343 442.12006395 740.908343 442.12006395 742.45491982 444.54380989 C744.18619465 447.52394703 745.41077439 450.53302878 746.64241982 453.75084114 C747.2979081 455.44080208 747.2979081 455.44080208 747.96663857 457.16490364 C748.95491982 460.12584114 748.95491982 460.12584114 748.95491982 463.12584114 C749.61491982 463.12584114 750.27491982 463.12584114 750.95491982 463.12584114 C751.61491982 466.09584114 752.27491982 469.06584114 752.95491982 472.12584114 C753.61491982 472.12584114 754.27491982 472.12584114 754.95491982 472.12584114 C755.20241982 473.07459114 755.44991982 474.02334114 755.70491982 475.00084114 C756.82589179 478.93213723 758.33516209 482.6584036 759.87288857 486.44224739 C762.65918149 493.35265621 764.97586024 499.71296154 765.95491982 507.12584114 C766.40383182 508.40767423 766.88541378 509.67835585 767.39241982 510.93834114 C768.99370365 514.92202288 769.79059471 518.90099074 770.52523232 523.12193489 C770.76280622 525.11477405 770.76280622 525.11477405 771.95491982 526.12584114 C772.1140766 527.66435673 772.23198607 529.20721875 772.32991982 530.75084114 C772.63118617 534.19110852 773.02902029 536.2925672 774.45491982 539.50084114 C776.26806589 543.88261082 776.4934131 547.75281038 776.74398232 552.45396614 C776.85514133 555.22747758 776.85514133 555.22747758 777.95491982 558.12584114 C779.43987104 567.72001817 780.2442157 577.30258381 780.70882607 586.99302864 C780.74987972 590.02892381 780.74987972 590.02892381 781.95491982 592.12584114 C782.12362176 594.44688947 782.22931388 596.772606 782.30648232 599.09849739 C782.33013359 599.8051252 782.35378487 600.51175301 782.37815285 601.23979378 C782.45226329 603.55582796 782.51729109 605.87196928 782.57991982 608.18834114 C782.60204536 608.97639137 782.62417091 609.7644416 782.64696693 610.57637215 C783.93552224 658.1646363 783.93552224 658.1646363 778.95491982 668.12584114 C778.79505 669.81039535 778.67751387 671.49903458 778.57991982 673.18834114 C778.17147594 678.54349422 777.43823684 683.77748626 776.51741982 689.06334114 C776.39512001 689.78465218 776.27282021 690.50596321 776.14681435 691.24913216 C775.45456925 695.10509037 774.45002428 698.51740337 772.95491982 702.12584114 C772.75336656 704.17496587 772.55314718 706.2242346 772.36116982 708.27427864 C770.68842909 720.01563181 767.00687534 731.96145511 762.70491982 742.98521614 C761.80195454 745.56242953 761.13378619 748.16859088 760.45491982 750.81334114 C759.42853539 754.72980803 758.16387778 757.71199701 755.95491982 761.12584114 C755.24821254 763.81839105 755.24821254 763.81839105 754.95491982 766.12584114 C754.29491982 766.12584114 753.63491982 766.12584114 752.95491982 766.12584114 C752.95491982 767.44584114 752.95491982 768.76584114 752.95491982 770.12584114 C752.29491982 770.12584114 751.63491982 770.12584114 750.95491982 770.12584114 C751.07866982 771.11584114 751.07866982 771.11584114 751.20491982 772.12584114 C750.850916 776.37388689 748.96485328 779.4215269 746.95491982 783.12584114 C745.00793786 786.91847513 743.13483539 790.70603814 741.45491982 794.62584114 C739.77437169 798.54712011 737.88772442 802.32489825 735.95491982 806.12584114 C735.2038947 807.62532815 734.45386105 809.12531223 733.70491982 810.62584114 C733.12741982 811.78084114 732.54991982 812.93584114 731.95491982 814.12584114 C731.29491982 814.12584114 730.63491982 814.12584114 729.95491982 814.12584114 C729.62491982 815.77584114 729.29491982 817.42584114 728.95491982 819.12584114 C727.96491982 819.45584114 726.97491982 819.78584114 725.95491982 820.12584114 C725.85050575 820.84127083 725.74609169 821.55670052 725.63851357 822.29380989 C724.87969715 825.43747791 723.68998276 827.67799887 722.01741982 830.43834114 C721.49277138 831.32134895 720.96812294 832.20435677 720.42757607 833.11412239 C719.9415995 833.77798958 719.45562294 834.44185677 718.95491982 835.12584114 C718.29491982 835.12584114 717.63491982 835.12584114 716.95491982 835.12584114 C716.95491982 836.44584114 716.95491982 837.76584114 716.95491982 839.12584114 C716.29491982 839.12584114 715.63491982 839.12584114 714.95491982 839.12584114 C714.95491982 839.78584114 714.95491982 840.44584114 714.95491982 841.12584114 C714.29491982 841.12584114 713.63491982 841.12584114 712.95491982 841.12584114 C712.81054482 841.74459114 712.66616982 842.36334114 712.51741982 843.00084114 C711.95491982 845.12584114 711.95491982 845.12584114 710.95491982 847.12584114 C710.29491982 847.12584114 709.63491982 847.12584114 708.95491982 847.12584114 C708.95491982 848.11584114 708.95491982 849.10584114 708.95491982 850.12584114 C708.29491982 850.12584114 707.63491982 850.12584114 706.95491982 850.12584114 C706.95491982 851.11584114 706.95491982 852.10584114 706.95491982 853.12584114 C706.29491982 853.12584114 705.63491982 853.12584114 704.95491982 853.12584114 C704.56820107 854.19898567 704.56820107 854.19898567 704.17366982 855.29380989 C702.88107216 858.29744225 701.32714892 860.76089486 699.45491982 863.43834114 C698.84648232 864.32134895 698.23804482 865.20435677 697.61116982 866.11412239 C697.06460732 866.77798958 696.51804482 867.44185677 695.95491982 868.12584114 C695.29491982 868.12584114 694.63491982 868.12584114 693.95491982 868.12584114 C693.95491982 868.78584114 693.95491982 869.44584114 693.95491982 870.12584114 C693.29491982 870.12584114 692.63491982 870.12584114 691.95491982 870.12584114 C691.85179482 870.76521614 691.74866982 871.40459114 691.64241982 872.06334114 C691.41554482 872.74396614 691.18866982 873.42459114 690.95491982 874.12584114 C689.96491982 874.45584114 688.97491982 874.78584114 687.95491982 875.12584114 C687.66616982 875.86834114 687.37741982 876.61084114 687.07991982 877.37584114 C685.68339078 880.78957878 683.60828928 882.60854191 680.95491982 885.12584114 C680.62491982 885.78584114 680.29491982 886.44584114 679.95491982 887.12584114 C679.29491982 887.12584114 678.63491982 887.12584114 677.95491982 887.12584114 C677.95491982 887.78584114 677.95491982 888.44584114 677.95491982 889.12584114 C677.29491982 889.12584114 676.63491982 889.12584114 675.95491982 889.12584114 C675.95491982 889.78584114 675.95491982 890.44584114 675.95491982 891.12584114 C675.29491982 891.12584114 674.63491982 891.12584114 673.95491982 891.12584114 C673.69710732 891.70849739 673.43929482 892.29115364 673.17366982 892.89146614 C671.85657965 895.30613144 670.40403597 896.94324292 668.45491982 898.87584114 C667.84648232 899.48943489 667.23804482 900.10302864 666.61116982 900.73521614 C664.95491982 902.12584114 664.95491982 902.12584114 662.95491982 902.12584114 C662.95491982 902.78584114 662.95491982 903.44584114 662.95491982 904.12584114 C662.29491982 904.12584114 661.63491982 904.12584114 660.95491982 904.12584114 C660.95491982 904.78584114 660.95491982 905.44584114 660.95491982 906.12584114 C660.29491982 906.12584114 659.63491982 906.12584114 658.95491982 906.12584114 C658.95491982 906.78584114 658.95491982 907.44584114 658.95491982 908.12584114 C658.29491982 908.12584114 657.63491982 908.12584114 656.95491982 908.12584114 C656.95491982 908.78584114 656.95491982 909.44584114 656.95491982 910.12584114 C656.29491982 910.12584114 655.63491982 910.12584114 654.95491982 910.12584114 C654.29491982 911.44584114 653.63491982 912.76584114 652.95491982 914.12584114 C652.29491982 914.12584114 651.63491982 914.12584114 650.95491982 914.12584114 C650.95491982 914.78584114 650.95491982 915.44584114 650.95491982 916.12584114 C649.30491982 916.78584114 647.65491982 917.44584114 645.95491982 918.12584114 C645.95491982 918.78584114 645.95491982 919.44584114 645.95491982 920.12584114 C645.29491982 920.12584114 644.63491982 920.12584114 643.95491982 920.12584114 C643.95491982 920.78584114 643.95491982 921.44584114 643.95491982 922.12584114 C640.49338135 925.12584114 640.49338135 925.12584114 637.95491982 925.12584114 C637.95491982 925.78584114 637.95491982 926.44584114 637.95491982 927.12584114 C636.96491982 927.45584114 635.97491982 927.78584114 634.95491982 928.12584114 C634.29491982 929.11584114 633.63491982 930.10584114 632.95491982 931.12584114 C631.96491982 931.12584114 630.97491982 931.12584114 629.95491982 931.12584114 C629.95491982 931.78584114 629.95491982 932.44584114 629.95491982 933.12584114 C625.48433158 937.12584114 625.48433158 937.12584114 622.95491982 937.12584114 C622.95491982 937.78584114 622.95491982 938.44584114 622.95491982 939.12584114 C619.95491982 941.12584114 619.95491982 941.12584114 616.95491982 941.12584114 C616.62491982 942.11584114 616.29491982 943.10584114 615.95491982 944.12584114 C613.29408013 946.11980371 610.34249657 948.12584114 606.95491982 948.12584114 C606.95491982 948.78584114 606.95491982 949.44584114 606.95491982 950.12584114 C605.96491982 950.12584114 604.97491982 950.12584114 603.95491982 950.12584114 C603.95491982 950.78584114 603.95491982 951.44584114 603.95491982 952.12584114 C600.95491982 954.12584114 600.95491982 954.12584114 597.95491982 954.12584114 C597.95491982 954.78584114 597.95491982 955.44584114 597.95491982 956.12584114 C597.29491982 956.12584114 596.63491982 956.12584114 595.95491982 956.12584114 C595.95491982 956.78584114 595.95491982 957.44584114 595.95491982 958.12584114 C595.02679482 958.47646614 594.09866982 958.82709114 593.14241982 959.18834114 C589.7449808 960.63071465 586.78518139 962.4723762 583.70491982 964.50084114 C570.46527013 973.12584114 570.46527013 973.12584114 564.95491982 973.12584114 C564.95491982 973.78584114 564.95491982 974.44584114 564.95491982 975.12584114 C563.63491982 975.12584114 562.31491982 975.12584114 560.95491982 975.12584114 C560.95491982 975.78584114 560.95491982 976.44584114 560.95491982 977.12584114 C559.63491982 977.12584114 558.31491982 977.12584114 556.95491982 977.12584114 C556.95491982 977.78584114 556.95491982 978.44584114 556.95491982 979.12584114 C553.8199369 980.9836088 551.58020549 981.3272459 547.95491982 981.12584114 C547.95491982 981.78584114 547.95491982 982.44584114 547.95491982 983.12584114 C547.15570107 983.42877083 546.35648232 983.73170052 545.53304482 984.04380989 C539.8476428 986.21253719 534.21650792 988.43406308 528.64241982 990.87584114 C523.98042075 992.85084473 519.99923555 993.83482293 514.95491982 994.12584114 C514.95491982 994.78584114 514.95491982 995.44584114 514.95491982 996.12584114 C511.26989108 997.85319836 507.95656457 998.36398981 503.92757607 998.77818489 C501.70298525 999.07356665 501.70298525 999.07356665 498.95491982 1000.62584114 C495.8688702 1002.16886595 493.36183159 1002.50362189 489.95491982 1002.81334114 C487.64654658 1003.08740771 487.64654658 1003.08740771 484.51741982 1004.62584114 C480.91260115 1006.14365952 478.21059979 1006.5472286 474.36116982 1006.71959114 C471.62292556 1007.18189212 469.3581173 1008.24489052 466.83773232 1009.37730598 C463.72928503 1010.61310725 460.48846211 1011.14254913 457.20491982 1011.68834114 C455.78041437 1011.93688851 454.35593523 1012.18558664 452.93148232 1012.43443489 C452.24602333 1012.55157845 451.56056435 1012.668722 450.85433388 1012.78941536 C449.26509331 1013.07090296 447.68301172 1013.39241914 446.10335732 1013.72349739 C439.47358069 1015.10897702 432.89923016 1015.51054163 426.14681435 1015.78453255 C422.05247447 1015.91634047 422.05247447 1015.91634047 418.03182411 1016.61924934 C403.62467054 1020.13339577 386.51481034 1018.22735259 371.70491982 1017.75084114 C371.01692299 1017.72951118 370.32892616 1017.70818123 369.62008095 1017.68620491 C362.98166284 1017.47220981 356.52890804 1017.09440421 349.95491982 1016.12584114 C348.10751658 1016.05370826 346.25994516 1015.98289053 344.41170692 1015.9368763 C335.10894479 1015.66413201 326.05817113 1014.32211279 316.89241982 1012.75084114 C315.65604774 1012.54169075 314.41967567 1012.33254036 313.14583778 1012.11705208 C307.19464924 1011.05995961 301.50683994 1009.87203912 295.84261513 1007.73863411 C293.79444745 1007.07374781 291.90854838 1006.82654066 289.76741982 1006.62584114 C285.95491982 1006.12584114 285.95491982 1006.12584114 283.01741982 1004.62584114 C279.58681823 1002.94554648 276.96816708 1002.69325279 273.20101357 1002.53209114 C270.32833312 1002.01251068 268.44992346 1000.62656721 265.95491982 999.12584114 C263.87154832 998.49063503 261.76469744 997.92809752 259.64241982 997.43834114 C258.0394706 997.06129036 258.0394706 997.06129036 256.40413857 996.67662239 C255.59589638 996.49486458 254.78765419 996.31310677 253.95491982 996.12584114 C253.95491982 995.46584114 253.95491982 994.80584114 253.95491982 994.12584114 C252.94429482 994.02271614 251.93366982 993.91959114 250.89241982 993.81334114 C246.81470782 993.10135968 243.72225386 991.81464606 239.95491982 990.12584114 C238.52286302 989.63064393 237.0849096 989.15227019 235.64241982 988.68834114 C230.64944705 987.06992928 225.80731685 985.12150339 220.95491982 983.12584114 C220.95491982 982.46584114 220.95491982 981.80584114 220.95491982 981.12584114 C219.84116982 980.98146614 218.72741982 980.83709114 217.57991982 980.68834114 C213.95491982 980.12584114 213.95491982 980.12584114 211.95491982 979.12584114 C211.95491982 978.46584114 211.95491982 977.80584114 211.95491982 977.12584114 C211.29491982 977.12584114 210.63491982 977.12584114 209.95491982 977.12584114 C209.95491982 976.46584114 209.95491982 975.80584114 209.95491982 975.12584114 C207.97491982 975.12584114 205.99491982 975.12584114 203.95491982 975.12584114 C203.95491982 974.46584114 203.95491982 973.80584114 203.95491982 973.12584114 C203.29491982 973.12584114 202.63491982 973.12584114 201.95491982 973.12584114 C201.95491982 972.46584114 201.95491982 971.80584114 201.95491982 971.12584114 C201.26011513 971.19545052 200.56531044 971.26505989 199.84945107 971.33677864 C196.08428011 971.06239371 193.86871443 969.68110288 190.64241982 967.75084114 C189.0394706 966.81111458 189.0394706 966.81111458 187.40413857 965.85240364 C186.59589638 965.28263802 185.78765419 964.71287239 184.95491982 964.12584114 C184.95491982 963.46584114 184.95491982 962.80584114 184.95491982 962.12584114 C184.22917763 962.0136927 183.50343544 961.90154427 182.75570107 961.78599739 C179.82927989 961.09622727 177.73204173 960.070733 175.14241982 958.56334114 C174.3522245 958.10830208 173.56202919 957.65326302 172.74788857 957.18443489 C172.15620888 956.83509895 171.56452919 956.48576302 170.95491982 956.12584114 C170.95491982 955.46584114 170.95491982 954.80584114 170.95491982 954.12584114 C169.30491982 953.79584114 167.65491982 953.46584114 165.95491982 953.12584114 C165.62491982 952.13584114 165.29491982 951.14584114 164.95491982 950.12584114 C163.30242494 949.42478271 161.63124399 948.76783763 159.95491982 948.12584114 C158.50015535 947.32302668 157.06319704 946.48737627 155.64241982 945.62584114 C154.945037 945.20302864 154.24765419 944.78021614 153.52913857 944.34459114 C153.00964638 943.94240364 152.49015419 943.54021614 151.95491982 943.12584114 C151.95491982 942.46584114 151.95491982 941.80584114 151.95491982 941.12584114 C151.37226357 941.01111458 150.78960732 940.89638802 150.18929482 940.77818489 C147.78968847 940.07760052 146.22631049 939.14391519 144.20491982 937.68834114 C143.59132607 937.2565052 142.97773232 936.82466927 142.34554482 936.37974739 C141.65718544 935.7590638 141.65718544 935.7590638 140.95491982 935.12584114 C140.95491982 934.46584114 140.95491982 933.80584114 140.95491982 933.12584114 C140.29491982 933.12584114 139.63491982 933.12584114 138.95491982 933.12584114 C138.95491982 932.46584114 138.95491982 931.80584114 138.95491982 931.12584114 C137.63491982 930.46584114 136.31491982 929.80584114 134.95491982 929.12584114 C134.95491982 928.46584114 134.95491982 927.80584114 134.95491982 927.12584114 C134.40320107 927.04205208 133.85148232 926.95826302 133.28304482 926.87193489 C130.20073127 925.88414649 128.21590698 924.21842287 125.70491982 922.18834114 C124.81288857 921.4780677 123.92085732 920.76779427 123.00179482 920.03599739 C122.32632607 919.40564583 121.65085732 918.77529427 120.95491982 918.12584114 C120.95491982 917.46584114 120.95491982 916.80584114 120.95491982 916.12584114 C120.33616982 915.85771614 119.71741982 915.58959114 119.07991982 915.31334114 C116.95491982 914.12584114 116.95491982 914.12584114 114.95491982 911.12584114 C113.96491982 910.79584114 112.97491982 910.46584114 111.95491982 910.12584114 C111.95491982 909.46584114 111.95491982 908.80584114 111.95491982 908.12584114 C111.29491982 908.12584114 110.63491982 908.12584114 109.95491982 908.12584114 C109.95491982 907.46584114 109.95491982 906.80584114 109.95491982 906.12584114 C109.29491982 906.12584114 108.63491982 906.12584114 107.95491982 906.12584114 C107.95491982 905.46584114 107.95491982 904.80584114 107.95491982 904.12584114 C107.29491982 904.12584114 106.63491982 904.12584114 105.95491982 904.12584114 C105.95491982 903.46584114 105.95491982 902.80584114 105.95491982 902.12584114 C105.29491982 902.12584114 104.63491982 902.12584114 103.95491982 902.12584114 C103.95491982 901.46584114 103.95491982 900.80584114 103.95491982 900.12584114 C103.31554482 899.85771614 102.67616982 899.58959114 102.01741982 899.31334114 C99.95491982 898.12584114 99.95491982 898.12584114 98.95491982 895.12584114 C98.29491982 895.12584114 97.63491982 895.12584114 96.95491982 895.12584114 C95.58773232 893.77037239 95.58773232 893.77037239 94.07991982 891.93834114 C93.55398232 891.30154427 93.02804482 890.66474739 92.48616982 890.00865364 C91.98085732 889.38732552 91.47554482 888.76599739 90.95491982 888.12584114 C89.77929482 886.73365364 89.77929482 886.73365364 88.57991982 885.31334114 C86.95491982 883.12584114 86.95491982 883.12584114 86.95491982 881.12584114 C86.29491982 881.12584114 85.63491982 881.12584114 84.95491982 881.12584114 C84.95491982 880.46584114 84.95491982 879.80584114 84.95491982 879.12584114 C84.29491982 879.12584114 83.63491982 879.12584114 82.95491982 879.12584114 C82.95491982 878.46584114 82.95491982 877.80584114 82.95491982 877.12584114 C82.29491982 877.12584114 81.63491982 877.12584114 80.95491982 877.12584114 C79.22835732 875.29771614 79.22835732 875.29771614 77.32991982 872.87584114 C76.69827919 872.08693489 76.06663857 871.29802864 75.41585732 870.48521614 C73.95491982 868.12584114 73.95491982 868.12584114 73.95491982 864.12584114 C72.63491982 863.79584114 71.31491982 863.46584114 69.95491982 863.12584114 C69.95491982 862.13584114 69.95491982 861.14584114 69.95491982 860.12584114 C69.29491982 860.12584114 68.63491982 860.12584114 67.95491982 860.12584114 C67.95491982 859.46584114 67.95491982 858.80584114 67.95491982 858.12584114 C67.29491982 858.12584114 66.63491982 858.12584114 65.95491982 858.12584114 C65.29491982 856.47584114 64.63491982 854.82584114 63.95491982 853.12584114 C63.29491982 853.12584114 62.63491982 853.12584114 61.95491982 853.12584114 C60.75431967 851.29832663 59.64419681 849.41096273 58.57991982 847.50084114 C55.70625807 842.40238834 55.70625807 842.40238834 52.51741982 837.50084114 C50.95491982 835.12584114 50.95491982 835.12584114 50.95491982 833.12584114 C50.29491982 833.12584114 49.63491982 833.12584114 48.95491982 833.12584114 C48.95491982 832.13584114 48.95491982 831.14584114 48.95491982 830.12584114 C48.29491982 830.12584114 47.63491982 830.12584114 46.95491982 830.12584114 C46.95491982 829.13584114 46.95491982 828.14584114 46.95491982 827.12584114 C46.29491982 827.12584114 45.63491982 827.12584114 44.95491982 827.12584114 C43.52886473 824.51140682 42.10292285 821.89691173 40.67757607 819.28209114 C39.56259304 817.23921975 38.44554049 815.19747595 37.32601357 813.15709114 C35.86107498 810.48422074 34.4063504 807.80606399 32.95491982 805.12584114 C32.33616982 803.99146614 31.71741982 802.85709114 31.07991982 801.68834114 C29.95491982 799.12584114 29.95491982 799.12584114 29.95491982 795.12584114 C29.29491982 795.12584114 28.63491982 795.12584114 27.95491982 795.12584114 C27.95491982 793.80584114 27.95491982 792.48584114 27.95491982 791.12584114 C27.29491982 791.12584114 26.63491982 791.12584114 25.95491982 791.12584114 C25.95491982 789.80584114 25.95491982 788.48584114 25.95491982 787.12584114 C25.29491982 787.12584114 24.63491982 787.12584114 23.95491982 787.12584114 C21.95310103 784.12311296 21.0876499 781.52403138 19.95491982 778.12584114 C18.96491982 776.64084114 18.96491982 776.64084114 17.95491982 775.12584114 C17.27327142 773.08089595 16.5957715 771.03447422 15.93929482 768.98130989 C14.73814633 765.49702599 13.35067747 762.09772777 11.95491982 758.68834114 C9.83290573 753.49223555 7.97322366 748.30215709 6.49788857 742.88365364 C6.10217488 741.11745564 6.10217488 741.11745564 4.95491982 740.12584114 C4.79599149 738.7543486 4.67795672 737.37802623 4.57991982 736.00084114 C4.14648773 731.57563934 2.73587417 728.20719486 0.95491982 724.12584114 C0.63523643 722.11583187 0.45409344 720.11687155 0.26741982 718.09068489 C-0.01064598 715.81242861 -0.01064598 715.81242861 -1.54508018 712.68834114 C-3.11692276 708.95521502 -3.54981897 705.94022486 -3.83414268 701.94615364 C-3.85625034 700.10766706 -3.85625034 700.10766706 -5.04508018 699.12584114 C-6.76721573 692.70819539 -7.38147588 686.20659506 -7.79898643 679.59459114 C-7.8971251 677.12484454 -7.8971251 677.12484454 -9.04508018 675.12584114 C-9.41643883 672.37546619 -9.7483722 669.63429822 -10.04508018 666.87584114 C-10.21033456 665.3704771 -10.37697703 663.86526472 -10.54508018 662.36021614 C-10.61726768 661.6921595 -10.68945518 661.02410286 -10.76383018 660.33580208 C-10.96317207 658.76944551 -11.22459953 657.21042793 -11.52846336 655.66095161 C-12.22468394 650.89684686 -12.41043185 646.16232129 -12.59219933 641.35411263 C-12.63416215 640.26520194 -12.67612497 639.17629126 -12.7193594 638.05438328 C-13.18741269 624.72648532 -13.23031923 611.39516026 -13.27487564 598.06070328 C-13.29065928 593.3660272 -13.31458363 588.67141184 -13.33977318 583.97677803 C-13.41017001 570.65109783 -13.47120155 557.32539019 -13.52188683 543.99962044 C-13.55014167 536.58935815 -13.58545399 529.17916359 -13.62854058 521.76897234 C-13.65527363 517.10050767 -13.67319785 512.43211891 -13.68457782 507.76359284 C-13.69367269 504.87905486 -13.71101261 501.99461131 -13.73075676 499.1101284 C-13.74183503 497.13075775 -13.74298344 495.1513394 -13.74388695 493.17193794 C-13.75846443 491.4171714 -13.75846443 491.4171714 -13.77333641 489.62695503 C-13.77756835 488.60673791 -13.78180029 487.58652079 -13.78616047 486.53538799 C-13.80984281 483.94273743 -13.80984281 483.94273743 -16.04508018 482.12584114 C-18.20182635 481.8300173 -18.20182635 481.8300173 -20.74820518 481.89537239 C-21.76624229 481.89666145 -22.7842794 481.89795052 -23.83316612 481.89927864 C-25.54681358 481.91861458 -25.54681358 481.91861458 -27.29508018 481.93834114 C-28.5174337 481.94478645 -29.73978722 481.95123177 -30.99918175 481.95787239 C-41.63165624 482.0296265 -52.26038646 482.30319816 -62.88971519 482.55665779 C-94.99328086 483.32111672 -127.09454968 483.60136957 -159.19476891 482.55363655 C-173.5352933 482.08581418 -187.86171511 482.05701267 -202.20889854 482.16295052 C-228.66309801 482.32815207 -228.66309801 482.32815207 -233.04508018 478.12584114 C-234.03562133 475.15421769 -234.19986515 473.11498934 -234.25536156 470.00898933 C-234.27629435 468.94215794 -234.29722713 467.87532654 -234.31879425 466.77616692 C-234.33650816 465.59782406 -234.35422207 464.4194812 -234.37247276 463.20543098 C-234.39418478 461.95367199 -234.4158968 460.70191299 -234.43826675 459.41222191 C-234.49722793 455.91983011 -234.54815263 452.42736452 -234.59636855 448.93480921 C-234.62731536 446.69703301 -234.6596789 444.45928013 -234.69212341 442.22152519 C-235.25310097 402.72615937 -235.02867796 363.23172767 -234.78480923 323.73464465 C-234.73564299 315.62059832 -234.69921534 307.50652755 -234.66528577 299.39240515 C-234.63160203 291.44276627 -234.59035134 283.49319135 -234.54296046 275.54362237 C-234.51505134 270.84957567 -234.48994083 266.15555955 -234.47230148 261.46146202 C-234.4556206 257.1054201 -234.42949144 252.74953689 -234.39599037 248.39359283 C-234.38533573 246.8028681 -234.37802181 245.21211689 -234.3743248 243.62136078 C-234.36874934 241.45053078 -234.35102728 239.28012268 -234.33028221 237.10939217 C-234.32345263 235.89798372 -234.31662306 234.68657528 -234.30958652 233.43845749 C-234.02367001 229.85770505 -233.69875208 227.33030569 -232.04508018 224.12584114 C-226.80546389 220.9635807 -222.16563828 220.69978853 -216.15495872 220.76507759 C-215.28326465 220.76251432 -214.41157058 220.75995104 -213.51346153 220.75731009 C-210.60527189 220.7523858 -207.69760642 220.76884277 -204.78946495 220.78526497 C-202.69978917 220.78611153 -200.6101125 220.78563553 -198.52043724 220.78393745 C-192.85566479 220.78307723 -187.19108316 220.80070762 -181.52635503 220.82165933 C-175.60332092 220.84042142 -169.68028237 220.84217621 -163.75722313 220.84573555 C-152.54471884 220.85505736 -141.33230238 220.87967308 -130.11983675 220.90978402 C-117.35330331 220.94332371 -104.58676566 220.95981297 -91.82019913 220.97487032 C-65.56177747 221.00622245 -39.30343375 221.05898568 -13.04508018 221.12584114 C-13.04646287 219.94041883 -13.04646287 219.94041883 -13.0478735 218.73104858 C-13.07027435 199.20937346 -13.08665585 179.687701 -13.09689236 160.16601562 C-13.1019783 150.72423389 -13.10890757 141.28246103 -13.12051964 131.84068489 C-13.14988602 107.2688827 -13.14382118 82.69749521 -13.04508018 58.12584114 C-13.04217067 57.36868624 -13.03926115 56.61153133 -13.03626347 55.83143234 C-13.00173747 47.06194717 -12.94296128 38.2934548 -12.83227921 29.5245266 C-12.80516965 27.2057545 -12.78453315 24.88689645 -12.77080536 22.56800652 C-12.75045228 19.46053044 -12.7053154 16.35448749 -12.65225792 13.24742317 C-12.65122252 12.35152096 -12.65018711 11.45561874 -12.64912033 10.53256798 C-12.50736306 4.64491567 -12.50736306 4.64491567 -10.25713158 2.11824226 C-6.821907 0.57708425 -3.75390783 0.00088381 0 0 Z M249.95491982 481.12584114 C249.95491982 481.78584114 249.95491982 482.44584114 249.95491982 483.12584114 C249.29491982 483.12584114 248.63491982 483.12584114 247.95491982 483.12584114 C246.97573094 486.06340777 246.80268751 488.05003158 246.74959755 491.11607552 C246.72967751 492.15243141 246.70975746 493.18878731 246.68923378 494.25654793 C246.67249611 495.39935219 246.65575844 496.54215645 246.63851357 497.71959114 C246.61750587 498.93305214 246.59649818 500.14651314 246.5748539 501.39674568 C246.50731344 505.47303937 246.44852397 509.5493783 246.39241982 513.62584114 C246.38252148 514.32603119 246.37262314 515.02622124 246.36242485 515.74762917 C246.20824826 526.67331784 246.08601725 537.59922628 245.98021889 548.52548409 C245.95440482 551.17877511 245.92768484 553.83205617 245.90096474 556.48533821 C245.79142375 567.58491708 245.71421057 578.68426276 245.66881752 589.78428841 C245.6534123 593.39655457 245.62873575 597.00856674 245.59575844 600.62071419 C244.19608628 631.68588323 244.19608628 631.68588323 251.95491982 661.12584114 C252.5399019 663.19742906 253.07928305 665.28226922 253.57991982 667.37584114 C253.84031044 668.45349739 254.10070107 669.53115364 254.36898232 670.64146614 C254.56234169 671.46130989 254.75570107 672.28115364 254.95491982 673.12584114 C255.61491982 673.12584114 256.27491982 673.12584114 256.95491982 673.12584114 C256.95491982 674.44584114 256.95491982 675.76584114 256.95491982 677.12584114 C257.61491982 677.12584114 258.27491982 677.12584114 258.95491982 677.12584114 C258.95491982 678.44584114 258.95491982 679.76584114 258.95491982 681.12584114 C259.61491982 681.12584114 260.27491982 681.12584114 260.95491982 681.12584114 C261.18179482 682.11584114 261.40866982 683.10584114 261.64241982 684.12584114 C262.89983357 688.54940465 265.05716067 692.55008065 267.95491982 696.12584114 C268.61491982 696.12584114 269.27491982 696.12584114 269.95491982 696.12584114 C270.20241982 697.00498177 270.44991982 697.88412239 270.70491982 698.78990364 C272.02328437 702.30828903 273.5872011 704.60212669 275.95491982 707.50084114 C276.65616982 708.37482552 277.35741982 709.24880989 278.07991982 710.14927864 C278.69866982 710.80154427 279.31741982 711.45380989 279.95491982 712.12584114 C280.61491982 712.12584114 281.27491982 712.12584114 281.95491982 712.12584114 C282.18179482 712.68271614 282.40866982 713.23959114 282.64241982 713.81334114 C284.31697299 716.76374435 286.486185 718.85025917 288.95491982 721.12584114 C289.59558388 721.7252552 290.23624794 722.32466927 290.89632607 722.94224739 C301.15016789 732.93049606 301.15016789 732.93049606 313.95491982 738.12584114 C313.95491982 738.78584114 313.95491982 739.44584114 313.95491982 740.12584114 C314.61491982 740.12584114 315.27491982 740.12584114 315.95491982 740.12584114 C315.95491982 740.78584114 315.95491982 741.44584114 315.95491982 742.12584114 C317.08929482 742.41459114 318.22366982 742.70334114 319.39241982 743.00084114 C320.56804482 743.37209114 321.74366982 743.74334114 322.95491982 744.12584114 C323.28491982 744.78584114 323.61491982 745.44584114 323.95491982 746.12584114 C329.75768704 748.81998307 335.80964427 751.01996747 342.07991982 752.31334114 C345.95491982 753.12584114 345.95491982 753.12584114 348.95491982 755.12584114 C350.8766556 755.65114613 350.8766556 755.65114613 352.97445107 755.94224739 C353.74982216 756.06664192 354.52519325 756.19103645 355.32406044 756.31920052 C356.13036903 756.44101692 356.93667763 756.56283333 357.76741982 756.68834114 C358.95948036 756.87686653 358.95948036 756.87686653 360.17562294 757.06920052 C361.67289446 757.30574217 363.17064859 757.53926486 364.66903114 757.76866341 C366.40912738 758.04055925 368.14483496 758.34070764 369.87801552 758.65367317 C388.94293898 761.57929104 413.30960894 760.47810793 430.95491982 752.12584114 C432.95491982 751.45917447 434.95491982 750.79250781 436.95491982 750.12584114 C441.71307997 748.30276229 446.42346355 746.46465728 450.95491982 744.12584114 C450.95491982 743.46584114 450.95491982 742.80584114 450.95491982 742.12584114 C452.27491982 742.12584114 453.59491982 742.12584114 454.95491982 742.12584114 C454.95491982 741.46584114 454.95491982 740.80584114 454.95491982 740.12584114 C455.55304482 739.98146614 456.15116982 739.83709114 456.76741982 739.68834114 C458.51642386 739.23859724 460.24169004 738.69691773 461.95491982 738.12584114 C461.95491982 737.46584114 461.95491982 736.80584114 461.95491982 736.12584114 C463.93491982 735.46584114 465.91491982 734.80584114 467.95491982 734.12584114 C467.95491982 733.46584114 467.95491982 732.80584114 467.95491982 732.12584114 C468.61491982 732.12584114 469.27491982 732.12584114 469.95491982 732.12584114 C469.95491982 731.46584114 469.95491982 730.80584114 469.95491982 730.12584114 C471.95491982 729.12584114 473.95491982 728.12584114 475.95491982 727.12584114 C475.95491982 726.46584114 475.95491982 725.80584114 475.95491982 725.12584114 C477.27491982 724.46584114 478.59491982 723.80584114 479.95491982 723.12584114 C479.95491982 722.46584114 479.95491982 721.80584114 479.95491982 721.12584114 C480.52210732 720.89638802 481.08929482 720.66693489 481.67366982 720.43052864 C484.55317978 718.78368562 486.28547868 716.75461396 488.45491982 714.25084114 C490.65377359 711.72818355 492.79089238 709.27919556 495.23616982 706.99302864 C497.2935481 705.18093638 497.2935481 705.18093638 496.95491982 702.12584114 C497.61491982 702.12584114 498.27491982 702.12584114 498.95491982 702.12584114 C501.23226991 699.31074121 501.23226991 699.31074121 500.95491982 696.12584114 C501.61491982 696.12584114 502.27491982 696.12584114 502.95491982 696.12584114 C503.35324013 695.32920052 503.75156044 694.53255989 504.16195107 693.71177864 C508.95491982 684.12584114 508.95491982 684.12584114 510.65413857 680.91490364 C512.16625831 678.18561477 512.16625831 678.18561477 511.95491982 675.12584114 C512.61491982 675.12584114 513.27491982 675.12584114 513.95491982 675.12584114 C514.24366982 674.07396614 514.53241982 673.02209114 514.82991982 671.93834114 C515.95491982 668.12584114 515.95491982 668.12584114 517.07991982 665.37584114 C518.13614295 663.0621973 518.13614295 663.0621973 517.95491982 660.12584114 C518.61491982 660.12584114 519.27491982 660.12584114 519.95491982 660.12584114 C519.95491982 657.48584114 519.95491982 654.84584114 519.95491982 652.12584114 C520.61491982 652.12584114 521.27491982 652.12584114 521.95491982 652.12584114 C521.95491982 648.49584114 521.95491982 644.86584114 521.95491982 641.12584114 C522.61491982 641.12584114 523.27491982 641.12584114 523.95491982 641.12584114 C523.97956495 635.02029404 523.99775352 628.91477563 524.00985146 622.80919075 C524.0148927 620.73040958 524.02172556 618.65163198 524.03035927 616.57286263 C524.04243404 613.59181528 524.04815006 610.61081465 524.05257607 607.62974739 C524.05773735 606.69433617 524.06289864 605.75892494 524.06821632 604.79516792 C524.06829185 603.93435112 524.06836739 603.07353432 524.06844521 602.18663216 C524.07066582 601.42496239 524.07288643 600.66329262 524.07517433 599.87854195 C524.14582936 598.09773509 524.14582936 598.09773509 522.95491982 597.12584114 C522.6356849 595.06854944 522.44330629 593.00970593 522.23616982 590.93834114 C522.13493938 589.10908784 522.13493938 589.10908784 520.95491982 588.12584114 C520.50032124 585.47120993 520.25248744 582.80394976 519.95491982 580.12584114 C519.29491982 580.12584114 518.63491982 580.12584114 517.95491982 580.12584114 C517.81827919 579.40396614 517.68163857 578.68209114 517.54085732 577.93834114 C516.21037363 571.55201944 514.5610882 565.61348868 510.95491982 560.12584114 C510.28825315 558.45917447 509.62158648 556.79250781 508.95491982 555.12584114 C507.96757441 553.45164676 506.96679876 551.78532262 505.95491982 550.12584114 C504.93991091 548.13341626 503.93618537 546.13509919 502.95491982 544.12584114 C502.29491982 544.12584114 501.63491982 544.12584114 500.95491982 544.12584114 C500.66616982 543.36271614 500.37741982 542.59959114 500.07991982 541.81334114 C498.99222968 538.97554807 498.99222968 538.97554807 496.95491982 536.12584114 C496.29491982 536.12584114 495.63491982 536.12584114 494.95491982 536.12584114 C494.95491982 535.46584114 494.95491982 534.80584114 494.95491982 534.12584114 C493.82567274 532.96237445 492.68858661 531.80569401 491.51741982 530.68443489 C489.71365004 528.88517454 488.05803282 526.99100102 486.39241982 525.06334114 C482.86212969 520.9090684 482.86212969 520.9090684 478.95491982 517.12584114 C477.96491982 517.12584114 476.97491982 517.12584114 475.95491982 517.12584114 C475.76929482 516.56896614 475.58366982 516.01209114 475.39241982 515.43834114 C473.57212263 512.51003697 471.36934372 511.13858356 468.51351357 509.27427864 C466.95491982 508.12584114 466.95491982 508.12584114 465.95491982 506.12584114 C464.52568802 505.26317733 463.06139156 504.45784346 461.57991982 503.68834114 C459.17111972 502.43686357 457.24121052 501.41696085 455.33382607 499.47740364 C453.95528622 497.83393865 453.95528622 497.83393865 451.26741982 497.93834114 C450.50429482 498.00021614 449.74116982 498.06209114 448.95491982 498.12584114 C448.95491982 497.46584114 448.95491982 496.80584114 448.95491982 496.12584114 C448.051287 495.78810677 447.14765419 495.45037239 446.21663857 495.10240364 C445.03714638 494.65638802 443.85765419 494.21037239 442.64241982 493.75084114 C440.8847831 493.08955208 440.8847831 493.08955208 439.09163857 492.41490364 C435.95491982 491.12584114 435.95491982 491.12584114 432.95491982 489.12584114 C431.84116982 488.98146614 430.72741982 488.83709114 429.57991982 488.68834114 C425.95491982 488.12584114 425.95491982 488.12584114 423.70491982 486.68834114 C415.91017215 482.25950724 405.56564715 482.732441 396.83382607 482.50084114 C395.58340019 482.46289436 394.33297432 482.42494759 393.04465675 482.38585091 C377.99548969 481.97550948 362.94548071 482.05165804 347.89241982 482.12584114 C342.29737803 482.15318581 336.70236179 482.17647518 331.10726357 482.18834114 C330.09756697 482.19059102 330.09756697 482.19059102 329.06747246 482.19288635 C320.40124012 482.20529868 311.7896426 482.01252255 303.14051247 481.48828316 C292.67042615 480.8798578 282.18852133 481.01941081 271.70491982 481.06334114 C269.57992089 481.06837437 267.45492079 481.07293401 265.32991982 481.07701302 C260.20488988 481.08785535 255.0799185 481.10501563 249.95491982 481.12584114 Z " fill="#237CFF" transform="translate(235.04508018493652,5.87415885925293)"/>
<path d="M0 0 C0.82164642 -0.00095673 1.64329285 -0.00191345 2.48983765 -0.00289917 C4.23329749 -0.00358062 5.97675986 -0.00172877 7.72021484 0.00244141 C10.36692147 0.0077493 13.01345521 0.00251658 15.66015625 -0.00390625 C17.3567712 -0.00324466 19.05338605 -0.00196183 20.75 0 C21.53363922 -0.00202423 22.31727844 -0.00404846 23.12466431 -0.00613403 C28.09019942 0.01463227 32.85682328 0.4292413 37.7734375 1.1328125 C37.4434375 1.7928125 37.1134375 2.4528125 36.7734375 3.1328125 C21.2634375 3.1328125 5.7534375 3.1328125 -10.2265625 3.1328125 C-10.2265625 2.4728125 -10.2265625 1.8128125 -10.2265625 1.1328125 C-7.0167313 -0.4721031 -3.5249327 -0.00896634 0 0 Z " fill="#1555FF" transform="translate(285.2265625,5.8671875)"/>
<path d="M0 0 C5.97737327 -0.02482932 11.95471611 -0.04292109 17.93212891 -0.05493164 C19.96305871 -0.05994189 21.99398494 -0.06675191 24.02490234 -0.07543945 C26.95411057 -0.08765047 29.88327085 -0.09326153 32.8125 -0.09765625 C33.71178223 -0.10281754 34.61106445 -0.10797882 35.53759766 -0.11329651 C40.78569067 -0.11375728 45.80624001 0.23729846 51 1 C51 1.66 51 2.32 51 3 C44.86190075 3.02479809 38.72383095 3.04290645 32.58569336 3.05493164 C30.49942517 3.0599471 28.41316047 3.06676105 26.3269043 3.07543945 C23.32079199 3.08762736 20.31472634 3.09325631 17.30859375 3.09765625 C15.91911781 3.10539818 15.91911781 3.10539818 14.50157166 3.11329651 C9.55563335 3.11372084 4.87554661 2.84322739 0 2 C0 1.34 0 0.68 0 0 Z " fill="#1C4FFF" transform="translate(418,6)"/>
</svg>
