<svg width="40" height="39" viewBox="0 0 40 39" fill="none" xmlns="http://www.w3.org/2000/svg">
<path d="M21.3506 0.837128L25.8375 11.071C26.1809 11.8544 26.9242 12.3911 27.7776 12.4677L38.7082 13.4478C39.9449 13.6278 40.4383 15.1446 39.5416 16.0179L31.3078 22.935C30.6411 23.495 30.3377 24.375 30.5211 25.2251L32.9145 36.429C33.1246 37.6591 31.8345 38.5991 30.7278 38.0158L21.1873 32.4288C20.4539 31.9988 19.5472 31.9988 18.8138 32.4288L9.27329 38.0124C8.1699 38.5925 6.87649 37.6558 7.08651 36.4257L9.47997 25.2218C9.65998 24.3717 9.35996 23.4917 8.69326 22.9316L0.456152 16.0213C-0.437229 15.1512 0.0561311 13.6311 1.28953 13.4511L12.2201 12.4711C13.0735 12.3944 13.8169 11.8577 14.1602 11.0743L18.6471 0.840462C19.2038 -0.279598 20.7972 -0.279598 21.3506 0.837128Z" fill="#FDD835"/>
<path d="M21.024 11.6844L20.2639 4.14397C20.2339 3.72394 20.1472 3.00391 20.8206 3.00391C21.354 3.00391 21.644 4.11397 21.644 4.11397L23.9241 10.1676C24.7842 12.4711 24.4308 13.2611 23.6008 13.7278C22.6474 14.2612 21.2406 13.8445 21.024 11.6844Z" fill="#FFFF8D"/>
<path d="M30.4277 22.2651L36.968 17.1615C37.2914 16.8914 37.8748 16.4614 37.4081 15.9714C37.0381 15.5847 36.038 16.1414 36.038 16.1414L30.3144 18.3782C28.6076 18.9682 27.4742 19.8416 27.3742 20.9417C27.2442 22.4084 28.5609 23.5385 30.4277 22.2651Z" fill="#F4B400"/>
</svg>
