<svg width="48" height="48" viewBox="0 0 48 48" fill="none" xmlns="http://www.w3.org/2000/svg">
<circle cx="24" cy="25" r="22.5" stroke="#FFDF86" stroke-opacity="0.45"/>
<circle cx="24" cy="25" r="20" fill="url(#paint0_radial_5_362)" fill-opacity="0.38"/>
<path d="M23.5449 5.2793C23.7371 4.90367 24.2653 4.9112 24.4512 5.27637L28.9219 15.4727C29.4113 16.589 30.4708 17.3545 31.6885 17.4639L42.5713 18.4385C42.9757 18.5027 43.1379 18.9901 42.8574 19.2852L34.665 26.1689C33.717 26.9653 33.2825 28.2193 33.543 29.4326V29.4336L35.9287 40.6035C35.9944 41.0155 35.5654 41.3232 35.1973 41.1318L25.6924 35.5654H25.6914C24.6462 34.9533 23.3537 34.953 22.3086 35.5654L12.8047 41.1279C12.4348 41.3196 12.0053 41.0065 12.0723 40.5977L14.458 29.4307V29.4287C14.714 28.2198 14.2879 26.965 13.3369 26.166H13.3359L5.14258 19.292C4.86316 19.002 5.02214 18.5128 5.41895 18.4434L16.3096 17.4668C17.5273 17.3574 18.5868 16.592 19.0762 15.4756L23.5449 5.2793Z" stroke="#F4B400" stroke-width="2"/>
<path d="M21.5993 23.0396C21.5993 23.0396 21.5914 23.0286 21.5741 23.008C21.5582 22.9875 21.5361 22.959 21.5076 22.9226C21.4839 22.8973 21.4555 22.8673 21.4223 22.8325C21.3891 22.7946 21.348 22.755 21.3068 22.7139C21.2642 22.6744 21.2199 22.6333 21.174 22.6001C21.1298 22.5637 21.0807 22.5368 21.0412 22.5147C21.0001 22.4894 20.9622 22.4831 20.9384 22.4752C20.9258 22.4704 20.9147 22.4704 20.9052 22.4689C20.9005 22.4704 20.8958 22.4673 20.891 22.4689L20.8847 22.4704H20.8815H20.8799C20.8989 22.4704 20.8373 22.472 20.9226 22.4689L20.8357 22.472C20.8135 22.472 20.8278 22.4736 20.8293 22.4736C20.8341 22.4736 20.8373 22.4736 20.8404 22.472C20.8531 22.4673 20.8404 22.472 20.8372 22.472C20.8325 22.472 20.8262 22.4736 20.8199 22.4768C20.7946 22.4847 20.7566 22.491 20.7171 22.5163C20.6776 22.5384 20.6285 22.5653 20.5843 22.6017C20.54 22.6365 20.4941 22.676 20.4515 22.7155C20.3692 22.7962 20.2965 22.8768 20.2459 22.9353C20.1937 22.9954 20.1653 23.0302 20.1653 23.0302L20.1289 23.0728C19.9123 23.3258 19.5139 23.3685 19.2403 23.1693C19.0537 23.0333 18.9731 22.8214 19.0079 22.6191C19.0079 22.6191 19.019 22.5542 19.0506 22.442C19.0838 22.3297 19.1391 22.17 19.2482 21.9819C19.3573 21.7953 19.5154 21.5755 19.7826 21.3747C19.9139 21.2767 20.0736 21.1787 20.2633 21.1123C20.3092 21.0949 20.3582 21.0791 20.4088 21.0664C20.4609 21.0538 20.5021 21.0395 20.5732 21.03L20.6712 21.0158C20.7013 21.0126 20.7455 21.0079 20.7519 21.0079L20.8388 21.0016L20.8878 21H20.8926H20.9021L20.9226 21.0016H20.9606L21.0412 21.0063C21.095 21.0111 21.1471 21.0206 21.1993 21.0285C21.3021 21.0474 21.4049 21.0743 21.4982 21.1091C21.6879 21.1755 21.8476 21.272 21.9788 21.3716C22.246 21.5724 22.4041 21.7921 22.5132 21.9787C22.5686 22.072 22.6097 22.1605 22.6397 22.238C22.6729 22.3123 22.6966 22.3914 22.7156 22.4499C22.733 22.5068 22.733 22.5368 22.7409 22.5637C22.7457 22.589 22.7472 22.6033 22.7472 22.6033C22.8057 22.9226 22.5702 23.2246 22.2239 23.2768C21.9757 23.3163 21.7369 23.2167 21.5993 23.0396Z" fill="#F4B400"/>
<path d="M27.8448 23.0396C27.8448 23.0396 27.8369 23.0286 27.8195 23.008C27.8037 22.9875 27.7816 22.959 27.7531 22.9226C27.7294 22.8973 27.7009 22.8673 27.6677 22.8325C27.6345 22.7946 27.5934 22.755 27.5523 22.7139C27.5096 22.6744 27.4654 22.6333 27.4195 22.6001C27.3752 22.5637 27.3262 22.5368 27.2867 22.5147C27.2456 22.4894 27.2076 22.4831 27.1839 22.4752C27.1713 22.4704 27.1602 22.4704 27.1507 22.4689C27.146 22.4704 27.1412 22.4673 27.1365 22.4689L27.1302 22.4704H27.127H27.1254H27.1238C27.1428 22.4704 27.0811 22.472 27.1665 22.4689L27.0796 22.472C27.0574 22.472 27.0717 22.4736 27.0732 22.4736C27.078 22.4736 27.0811 22.4736 27.0843 22.472C27.097 22.4673 27.0843 22.472 27.0811 22.472C27.0764 22.472 27.0701 22.4736 27.0638 22.4768C27.0385 22.4847 27.0005 22.491 26.961 22.5163C26.9215 22.5384 26.8724 22.5653 26.8282 22.6017C26.7839 22.6365 26.738 22.676 26.6954 22.7155C26.6131 22.7962 26.5404 22.8768 26.4898 22.9353C26.4376 22.9954 26.4092 23.0302 26.4092 23.0302L26.3728 23.0728C26.1562 23.3258 25.7577 23.3685 25.4842 23.1693C25.2976 23.0333 25.217 22.8214 25.2518 22.6191C25.2518 22.6191 25.2629 22.5542 25.2945 22.442C25.3277 22.3297 25.383 22.17 25.4921 21.9819C25.6012 21.7953 25.7593 21.5755 26.0265 21.3747C26.1578 21.2767 26.3175 21.1787 26.5072 21.1123C26.5531 21.0949 26.6021 21.0791 26.6527 21.0664C26.7048 21.0538 26.7459 21.0395 26.8171 21.03L26.9151 21.0158C26.9452 21.0126 26.9894 21.0079 26.9958 21.0079L27.0827 21.0016L27.1317 21H27.1365H27.146L27.1665 21.0016H27.2045L27.2851 21.0063C27.3389 21.0111 27.391 21.0206 27.4432 21.0285C27.546 21.0474 27.6488 21.0743 27.7421 21.1091C27.9318 21.1755 28.0915 21.272 28.2227 21.3716C28.4899 21.5724 28.648 21.7921 28.7571 21.9787C28.8125 22.072 28.8536 22.1605 28.8836 22.238C28.9168 22.3123 28.9405 22.3914 28.9595 22.4499C28.9769 22.5068 28.9769 22.5368 28.9848 22.5637C28.9896 22.589 28.9911 22.6033 28.9911 22.6033C29.0496 22.9226 28.8141 23.2246 28.4678 23.2768C28.2196 23.3163 27.9808 23.2167 27.8448 23.0396Z" fill="#F4B400"/>
<path d="M23.9805 28.9055C21.993 28.9055 20.4214 27.9647 19.555 26.9575C19.468 26.8563 19.4474 26.7204 19.5028 26.6018C19.5581 26.48 19.6783 26.401 19.8079 26.401C19.8664 26.401 19.9265 26.4168 19.9787 26.4468C20.872 26.9623 22.3725 27.5995 23.9758 27.5995H24.0011C25.6059 27.5995 27.1048 26.9607 27.9981 26.4468C28.0519 26.4168 28.1104 26.3994 28.1689 26.401C28.2986 26.401 28.4187 26.48 28.4741 26.6018C28.5278 26.7204 28.5088 26.8579 28.4219 26.9575C27.5554 27.9631 25.9822 28.9055 23.9963 28.9055" fill="#F4B400"/>
<defs>
<radialGradient id="paint0_radial_5_362" cx="0" cy="0" r="1" gradientUnits="userSpaceOnUse" gradientTransform="translate(24 25) rotate(90) scale(20)">
<stop stop-color="#F7C02B"/>
<stop offset="0.785" stop-color="#917119"/>
</radialGradient>
</defs>
</svg>
