<svg width="500" height="135" viewBox="0 0 500 135" fill="none" xmlns="http://www.w3.org/2000/svg">
<g clip-path="url(#clip0_1_4)">
<path fill-rule="evenodd" clip-rule="evenodd" d="M0 120L20.04 122.5C42.585 125 82.665 130 125.25 115C167.835 100 207.915 65 250.5 50C293.085 35 333.165 40 375.75 57.5C418.335 75 458.415 105 480.96 120L501 135V0H480.96C458.415 0 418.335 0 375.75 0C333.165 0 293.085 0 250.5 0C207.915 0 167.835 0 125.25 0C82.665 0 42.585 0 20.04 0H0V120Z" fill="#F2CA50" fill-opacity="0.5"/>
<path fill-rule="evenodd" clip-rule="evenodd" d="M501 119.385L483.465 102.804C468.435 86.2223 433.365 53.0599 400.8 53.0599C368.235 53.0599 333.165 86.2223 300.6 82.9061C268.035 79.5898 232.965 39.7949 200.4 46.4274C167.835 53.0599 132.765 106.12 100.2 119.385C67.635 132.65 32.565 106.12 17.535 92.8548L-3.05176e-05 79.5898V0H17.535C32.565 0 67.635 0 100.2 0C132.765 0 167.835 0 200.4 0C232.965 0 268.035 0 300.6 0C333.165 0 368.235 0 400.8 0C433.365 0 468.435 0 483.465 0H501V119.385Z" fill="#F2CA50" fill-opacity="0.5"/>
<path fill-rule="evenodd" clip-rule="evenodd" d="M0 61.5L20.04 68.3333C42.585 75.1667 82.665 88.8333 125.25 78.5833C167.835 68.3333 207.915 34.1667 250.5 47.8333C293.085 61.5 333.165 123 375.75 123C418.335 123 458.415 61.5 480.96 30.75L501 0H480.96C458.415 0 418.335 0 375.75 0C333.165 0 293.085 0 250.5 0C207.915 0 167.835 0 125.25 0C82.665 0 42.585 0 20.04 0H0V61.5Z" fill="#F2CA50" fill-opacity="0.5"/>
</g>
<defs>
<clipPath id="clip0_1_4">
<rect width="500" height="135" fill="white"/>
</clipPath>
</defs>
</svg>
